<?xml version="1.0" encoding="UTF-8"?>
<svg width="68" height="30"
  xmlns="http://www.w3.org/2000/svg">
  <g fill="none" fill-rule="evenodd">
    <path d="M35.39.38a13.063 13.063 0 019.281 3.856l-.024.023-4.617 4.63a6.532 6.532 0 00-4.64-1.927c-3.624 0-6.562 2.947-6.562 6.582 0 3.636 2.938 6.583 6.562 6.583a6.532 6.532 0 004.64-1.928l4.23 4.244c-1.432 1.603-4.389 4.121-8.87 7.557-8.75-6.123-13.124-11.609-13.124-16.456C22.266 6.274 28.142.38 35.39.38z" fill="#038685"/>
    <path d="M10.803 26.647c1.583 0 2.981-.281 4.197-.843 1.215-.562 2.224-1.336 3.027-2.322a7.947 7.947 0 001.616-3.37h-5.056c-.23.573-.665 1.054-1.307 1.444-.642.39-1.468.585-2.477.585-1.1 0-1.995-.23-2.683-.688-.688-.459-1.192-1.107-1.513-1.944a6.921 6.921 0 01-.361-1.363l-.026-.167h13.767V16.12c0-1.72-.367-3.308-1.1-4.764a9.011 9.011 0 00-3.182-3.543c-1.387-.905-3.09-1.358-5.108-1.358-1.537 0-2.907.27-4.11.808-1.205.539-2.208 1.267-3.01 2.184a9.809 9.809 0 00-1.84 3.113A10.467 10.467 0 001 16.191v.687c0 1.215.212 2.402.636 3.56a9.849 9.849 0 001.858 3.13c.814.93 1.834 1.674 3.061 2.236 1.227.562 2.643.843 4.248.843zm3.957-11.798h-8.5l.01-.052c.075-.418.179-.804.312-1.157l.06-.15c.343-.837.848-1.473 1.513-1.91.665-.435 1.479-.653 2.442-.653.94 0 1.725.212 2.356.637.63.424 1.107 1.037 1.428 1.84.16.401.28.843.36 1.324l.02.12zM57.099 26.582c2.14 0 3.982-.338 5.524-1.015 1.542-.678 2.733-1.619 3.573-2.824.84-1.205 1.26-2.611 1.26-4.218 0-1.561-.397-2.887-1.191-3.977-.794-1.09-1.893-1.951-3.297-2.583-1.404-.63-3.027-1.027-4.868-1.187l-1.933-.173c-1.15-.091-1.98-.401-2.486-.93-.506-.527-.76-1.147-.76-1.859 0-.55.139-1.061.415-1.532.276-.47.696-.844 1.26-1.119.564-.276 1.26-.413 2.089-.413.874 0 1.605.16 2.192.482.587.321 1.03.74 1.329 1.257.3.516.449 1.084.449 1.704h5.523c0-1.653-.38-3.093-1.139-4.321-.76-1.228-1.847-2.181-3.262-2.858C60.36.339 58.664 0 56.685 0c-1.888 0-3.522.316-4.902.947-1.381.631-2.457 1.532-3.228 2.703-.771 1.17-1.157 2.56-1.157 4.166 0 2.227.748 4.017 2.244 5.372 1.496 1.354 3.498 2.135 6.007 2.341l1.899.172c1.542.138 2.658.442 3.348.913.69.47 1.036 1.108 1.036 1.911 0 .643-.184 1.21-.552 1.704-.368.494-.91.878-1.623 1.154-.713.275-1.6.413-2.658.413-1.174 0-2.129-.166-2.865-.5-.737-.332-1.283-.774-1.64-1.325a3.231 3.231 0 01-.535-1.79h-5.49c0 1.63.403 3.07 1.209 4.321.805 1.251 1.99 2.244 3.556 2.978 1.565.735 3.486 1.102 5.765 1.102z" fill="#FFFFFF" fill-rule="nonzero"/>
  </g>
</svg>
